<mxfile host="app.diagrams.net" modified="2024-03-27T18:00:44.638Z" agent="Mozilla/5.0 (Windows NT 10.0; Win64; x64) AppleWebKit/537.36 (KHTML, like Gecko) Chrome/123.0.0.0 Safari/537.36" etag="35QoASzotpnRwRkzIGIQ" version="24.2.0" type="github" pages="2">
  <diagram name="Página-1" id="zIAXpCOsc31PCEZzDFA1">
    <mxGraphModel dx="1766" dy="1143" grid="0" gridSize="10" guides="1" tooltips="1" connect="1" arrows="1" fold="1" page="0" pageScale="1" pageWidth="827" pageHeight="1169" background="#FFFFFF" math="0" shadow="0">
      <root>
        <mxCell id="0" />
        <mxCell id="1" parent="0" />
        <mxCell id="Lf3_G2w9cthXajrgwmvT-3" style="edgeStyle=none;curved=1;rounded=0;orthogonalLoop=1;jettySize=auto;html=1;fontSize=12;startSize=8;endSize=8;" parent="1" source="Lf3_G2w9cthXajrgwmvT-1" target="Lf3_G2w9cthXajrgwmvT-2" edge="1">
          <mxGeometry relative="1" as="geometry" />
        </mxCell>
        <mxCell id="Lf3_G2w9cthXajrgwmvT-1" value="Inicio" style="rounded=0;whiteSpace=wrap;html=1;" parent="1" vertex="1">
          <mxGeometry x="5" y="-55" width="120" height="60" as="geometry" />
        </mxCell>
        <mxCell id="Lf3_G2w9cthXajrgwmvT-6" style="edgeStyle=none;curved=1;rounded=0;orthogonalLoop=1;jettySize=auto;html=1;fontSize=12;startSize=8;endSize=8;" parent="1" source="Lf3_G2w9cthXajrgwmvT-2" target="Lf3_G2w9cthXajrgwmvT-5" edge="1">
          <mxGeometry relative="1" as="geometry" />
        </mxCell>
        <mxCell id="Lf3_G2w9cthXajrgwmvT-2" value="Ir até a lavandaria" style="rounded=0;whiteSpace=wrap;html=1;" parent="1" vertex="1">
          <mxGeometry x="5" y="71" width="120" height="60" as="geometry" />
        </mxCell>
        <mxCell id="Lf3_G2w9cthXajrgwmvT-9" style="edgeStyle=none;curved=1;rounded=0;orthogonalLoop=1;jettySize=auto;html=1;entryX=0;entryY=0.5;entryDx=0;entryDy=0;fontSize=12;startSize=8;endSize=8;" parent="1" source="Lf3_G2w9cthXajrgwmvT-5" target="Lf3_G2w9cthXajrgwmvT-7" edge="1">
          <mxGeometry relative="1" as="geometry" />
        </mxCell>
        <mxCell id="Lf3_G2w9cthXajrgwmvT-10" value="TRUE" style="edgeLabel;html=1;align=center;verticalAlign=middle;resizable=0;points=[];fontSize=12;" parent="Lf3_G2w9cthXajrgwmvT-9" vertex="1" connectable="0">
          <mxGeometry x="-0.0364" y="2" relative="1" as="geometry">
            <mxPoint as="offset" />
          </mxGeometry>
        </mxCell>
        <mxCell id="Lf3_G2w9cthXajrgwmvT-11" style="edgeStyle=none;curved=1;rounded=0;orthogonalLoop=1;jettySize=auto;html=1;fontSize=12;startSize=8;endSize=8;" parent="1" source="Lf3_G2w9cthXajrgwmvT-5" edge="1">
          <mxGeometry relative="1" as="geometry">
            <mxPoint x="-98" y="253" as="targetPoint" />
          </mxGeometry>
        </mxCell>
        <mxCell id="Lf3_G2w9cthXajrgwmvT-12" value="FALSE" style="edgeLabel;html=1;align=center;verticalAlign=middle;resizable=0;points=[];fontSize=12;" parent="Lf3_G2w9cthXajrgwmvT-11" vertex="1" connectable="0">
          <mxGeometry x="0.0485" y="-1" relative="1" as="geometry">
            <mxPoint as="offset" />
          </mxGeometry>
        </mxCell>
        <mxCell id="Lf3_G2w9cthXajrgwmvT-5" value="Se tiver roupas sujas" style="ellipse;whiteSpace=wrap;html=1;" parent="1" vertex="1">
          <mxGeometry x="5" y="213" width="120" height="80" as="geometry" />
        </mxCell>
        <mxCell id="Lf3_G2w9cthXajrgwmvT-14" style="edgeStyle=none;curved=1;rounded=0;orthogonalLoop=1;jettySize=auto;html=1;entryX=0.5;entryY=0;entryDx=0;entryDy=0;fontSize=12;startSize=8;endSize=8;" parent="1" source="Lf3_G2w9cthXajrgwmvT-7" target="Lf3_G2w9cthXajrgwmvT-13" edge="1">
          <mxGeometry relative="1" as="geometry" />
        </mxCell>
        <mxCell id="Lf3_G2w9cthXajrgwmvT-7" value="Pegar as roupas" style="rounded=0;whiteSpace=wrap;html=1;" parent="1" vertex="1">
          <mxGeometry x="235" y="223" width="120" height="60" as="geometry" />
        </mxCell>
        <mxCell id="Lf3_G2w9cthXajrgwmvT-8" value="Fim" style="rounded=0;whiteSpace=wrap;html=1;" parent="1" vertex="1">
          <mxGeometry x="-225" y="223" width="120" height="60" as="geometry" />
        </mxCell>
        <mxCell id="Lf3_G2w9cthXajrgwmvT-18" style="edgeStyle=none;curved=1;rounded=0;orthogonalLoop=1;jettySize=auto;html=1;fontSize=12;startSize=8;endSize=8;" parent="1" source="Lf3_G2w9cthXajrgwmvT-13" target="Lf3_G2w9cthXajrgwmvT-16" edge="1">
          <mxGeometry relative="1" as="geometry" />
        </mxCell>
        <mxCell id="Lf3_G2w9cthXajrgwmvT-13" value="Ir até a máquina de lavar" style="rounded=0;whiteSpace=wrap;html=1;" parent="1" vertex="1">
          <mxGeometry x="235" y="349" width="120" height="60" as="geometry" />
        </mxCell>
        <mxCell id="Lf3_G2w9cthXajrgwmvT-23" style="edgeStyle=none;curved=1;rounded=0;orthogonalLoop=1;jettySize=auto;html=1;fontSize=12;startSize=8;endSize=8;" parent="1" source="Lf3_G2w9cthXajrgwmvT-16" target="Lf3_G2w9cthXajrgwmvT-20" edge="1">
          <mxGeometry relative="1" as="geometry" />
        </mxCell>
        <mxCell id="Lf3_G2w9cthXajrgwmvT-24" value="FALSE" style="edgeLabel;html=1;align=center;verticalAlign=middle;resizable=0;points=[];fontSize=12;" parent="Lf3_G2w9cthXajrgwmvT-23" vertex="1" connectable="0">
          <mxGeometry x="-0.0928" y="-1" relative="1" as="geometry">
            <mxPoint as="offset" />
          </mxGeometry>
        </mxCell>
        <mxCell id="Lf3_G2w9cthXajrgwmvT-16" value="Verificar se máquina existe e se está funcionando" style="ellipse;whiteSpace=wrap;html=1;" parent="1" vertex="1">
          <mxGeometry x="230" y="475" width="120" height="80" as="geometry" />
        </mxCell>
        <mxCell id="Lf3_G2w9cthXajrgwmvT-20" value="Desiste - Fim" style="rounded=0;whiteSpace=wrap;html=1;" parent="1" vertex="1">
          <mxGeometry x="13" y="485" width="120" height="60" as="geometry" />
        </mxCell>
        <mxCell id="Lf3_G2w9cthXajrgwmvT-30" style="edgeStyle=none;curved=1;rounded=0;orthogonalLoop=1;jettySize=auto;html=1;entryX=1;entryY=0.5;entryDx=0;entryDy=0;fontSize=12;startSize=8;endSize=8;" parent="1" source="Lf3_G2w9cthXajrgwmvT-27" target="Lf3_G2w9cthXajrgwmvT-16" edge="1">
          <mxGeometry relative="1" as="geometry" />
        </mxCell>
        <mxCell id="Lf3_G2w9cthXajrgwmvT-32" value="TRUE" style="edgeLabel;html=1;align=center;verticalAlign=middle;resizable=0;points=[];fontSize=12;" parent="Lf3_G2w9cthXajrgwmvT-30" vertex="1" connectable="0">
          <mxGeometry x="0.0597" y="-1" relative="1" as="geometry">
            <mxPoint as="offset" />
          </mxGeometry>
        </mxCell>
        <mxCell id="Lf3_G2w9cthXajrgwmvT-33" style="edgeStyle=none;curved=1;rounded=0;orthogonalLoop=1;jettySize=auto;html=1;fontSize=12;startSize=8;endSize=8;" parent="1" source="Lf3_G2w9cthXajrgwmvT-27" edge="1">
          <mxGeometry relative="1" as="geometry">
            <mxPoint x="542" y="640" as="targetPoint" />
          </mxGeometry>
        </mxCell>
        <mxCell id="Lf3_G2w9cthXajrgwmvT-27" value="Jogar as roupas na máquina" style="rounded=0;whiteSpace=wrap;html=1;" parent="1" vertex="1">
          <mxGeometry x="482" y="485" width="120" height="60" as="geometry" />
        </mxCell>
        <mxCell id="Lf3_G2w9cthXajrgwmvT-36" style="edgeStyle=none;curved=1;rounded=0;orthogonalLoop=1;jettySize=auto;html=1;fontSize=12;startSize=8;endSize=8;" parent="1" source="Lf3_G2w9cthXajrgwmvT-34" edge="1">
          <mxGeometry relative="1" as="geometry">
            <mxPoint x="544" y="739" as="targetPoint" />
          </mxGeometry>
        </mxCell>
        <mxCell id="Lf3_G2w9cthXajrgwmvT-34" value="Jogar as roupas na máquina" style="rounded=0;whiteSpace=wrap;html=1;" parent="1" vertex="1">
          <mxGeometry x="484" y="640" width="120" height="60" as="geometry" />
        </mxCell>
        <mxCell id="Lf3_G2w9cthXajrgwmvT-43" style="edgeStyle=none;curved=1;rounded=0;orthogonalLoop=1;jettySize=auto;html=1;fontSize=12;startSize=8;endSize=8;entryX=0.017;entryY=0.578;entryDx=0;entryDy=0;entryPerimeter=0;" parent="1" source="Lf3_G2w9cthXajrgwmvT-39" target="Lf3_G2w9cthXajrgwmvT-45" edge="1">
          <mxGeometry relative="1" as="geometry">
            <mxPoint x="713" y="783" as="targetPoint" />
          </mxGeometry>
        </mxCell>
        <mxCell id="Lf3_G2w9cthXajrgwmvT-47" value="TRUE" style="edgeLabel;html=1;align=center;verticalAlign=middle;resizable=0;points=[];fontSize=12;" parent="Lf3_G2w9cthXajrgwmvT-43" vertex="1" connectable="0">
          <mxGeometry x="-0.0575" y="1" relative="1" as="geometry">
            <mxPoint as="offset" />
          </mxGeometry>
        </mxCell>
        <mxCell id="Lf3_G2w9cthXajrgwmvT-48" style="edgeStyle=none;curved=1;rounded=0;orthogonalLoop=1;jettySize=auto;html=1;fontSize=12;startSize=8;endSize=8;" parent="1" source="Lf3_G2w9cthXajrgwmvT-39" target="Lf3_G2w9cthXajrgwmvT-40" edge="1">
          <mxGeometry relative="1" as="geometry" />
        </mxCell>
        <mxCell id="Lf3_G2w9cthXajrgwmvT-49" value="FALSE" style="edgeLabel;html=1;align=center;verticalAlign=middle;resizable=0;points=[];fontSize=12;" parent="Lf3_G2w9cthXajrgwmvT-48" vertex="1" connectable="0">
          <mxGeometry x="0.0125" y="-1" relative="1" as="geometry">
            <mxPoint as="offset" />
          </mxGeometry>
        </mxCell>
        <mxCell id="Lf3_G2w9cthXajrgwmvT-39" value="Se tiver os produtos de limpeza pra colocar na máquina" style="ellipse;whiteSpace=wrap;html=1;" parent="1" vertex="1">
          <mxGeometry x="484" y="741" width="120" height="80" as="geometry" />
        </mxCell>
        <mxCell id="Lf3_G2w9cthXajrgwmvT-40" value="Desiste prq é preguiçoso- Fim" style="rounded=0;whiteSpace=wrap;html=1;" parent="1" vertex="1">
          <mxGeometry x="281" y="749" width="120" height="60" as="geometry" />
        </mxCell>
        <mxCell id="Lf3_G2w9cthXajrgwmvT-45" value="Liga no automatico e vai" style="rounded=0;whiteSpace=wrap;html=1;" parent="1" vertex="1">
          <mxGeometry x="713" y="747" width="120" height="60" as="geometry" />
        </mxCell>
        <mxCell id="Lf3_G2w9cthXajrgwmvT-50" value="muito mais....." style="shape=parallelogram;perimeter=parallelogramPerimeter;whiteSpace=wrap;html=1;fixedSize=1;" parent="1" vertex="1">
          <mxGeometry x="708" y="870" width="120" height="60" as="geometry" />
        </mxCell>
        <mxCell id="Lf3_G2w9cthXajrgwmvT-51" style="edgeStyle=none;curved=1;rounded=0;orthogonalLoop=1;jettySize=auto;html=1;entryX=0.542;entryY=0.067;entryDx=0;entryDy=0;entryPerimeter=0;fontSize=12;startSize=8;endSize=8;" parent="1" source="Lf3_G2w9cthXajrgwmvT-45" target="Lf3_G2w9cthXajrgwmvT-50" edge="1">
          <mxGeometry relative="1" as="geometry" />
        </mxCell>
      </root>
    </mxGraphModel>
  </diagram>
  <diagram id="CAcZ8zUBliGRF35fxQlb" name="Página-2">
    <mxGraphModel dx="683" dy="371" grid="1" gridSize="10" guides="1" tooltips="1" connect="1" arrows="1" fold="1" page="1" pageScale="1" pageWidth="827" pageHeight="1169" math="0" shadow="0">
      <root>
        <mxCell id="0" />
        <mxCell id="1" parent="0" />
        <mxCell id="2MigCujDD6KlRm2Ny5N--1" value="" style="rounded=0;whiteSpace=wrap;html=1;" vertex="1" parent="1">
          <mxGeometry x="180" y="170" width="120" height="60" as="geometry" />
        </mxCell>
        <mxCell id="2MigCujDD6KlRm2Ny5N--2" value="" style="rounded=0;whiteSpace=wrap;html=1;" vertex="1" parent="1">
          <mxGeometry x="400" y="170" width="120" height="60" as="geometry" />
        </mxCell>
        <mxCell id="2MigCujDD6KlRm2Ny5N--3" value="Robô" style="shape=umlActor;verticalLabelPosition=bottom;verticalAlign=top;html=1;outlineConnect=0;" vertex="1" parent="1">
          <mxGeometry x="330" y="310" width="30" height="60" as="geometry" />
        </mxCell>
      </root>
    </mxGraphModel>
  </diagram>
</mxfile>
